<svg xmlns="http://www.w3.org/2000/svg" xmlns:xlink="http://www.w3.org/1999/xlink" version="1.1" x="0px" y="0px" viewBox="-5 -5 110 110" style="enable-background:new -5 -5 110 110;" xml:space="preserve">
<g>
<!-- Card background fill -->
<path fill="#CD853F" d="M20.848,4.415c-1.348,0.001-2.444,1.09-2.443,2.427l0.05,86.352c0,1.338,1.098,2.425,2.446,2.425l58.252-0.033c1.349-0.002,2.445-1.09,2.443-2.428L81.547,6.806c-0.001-1.337-1.099-2.425-2.447-2.424L20.848,4.415z"/>
<!-- Card outline and spades in black -->
<path fill="black" d="M80.563,99.966L19.496,100c-2.625,0.002-4.761-2.115-4.763-4.72L14.682,4.759c-0.001-2.604,2.132-4.723,4.757-4.725   L80.504,0c2.625-0.002,4.762,2.115,4.763,4.719l0.052,90.522C85.32,97.844,83.187,99.964,80.563,99.966z M20.848,4.415   c-1.348,0.001-2.444,1.09-2.443,2.427l0.05,86.352c0,1.338,1.098,2.425,2.446,2.425l58.252-0.033   c1.349-0.002,2.445-1.09,2.443-2.428L81.547,6.806c-0.001-1.337-1.099-2.425-2.447-2.424L20.848,4.415z" fill-rule="evenodd"/>
<path fill="black" d="M35.048,19.563   c-0.002-3.845-6.036-7.396-6.036-7.396s-6.029,3.558-6.027,7.402c0.001,1.794,1.468,3.247,3.276,3.246   c0.873,0,1.666-0.34,2.252-0.893c-0.373,2.912-2.129,3.121-2.496,3.133v0.305h5.997v-0.305c-0.366-0.012-2.125-0.221-2.496-3.137   c0.588,0.554,1.382,0.895,2.257,0.894C33.583,22.812,35.049,21.356,35.048,19.563z M64.953,80.438   c0.002,3.845,6.035,7.396,6.035,7.396s6.029-3.558,6.027-7.402c-0.002-1.794-1.469-3.248-3.276-3.247   c-0.873,0.001-1.666,0.341-2.253,0.894c0.373-2.913,2.13-3.121,2.496-3.133V74.64h-5.997v0.305   c0.366,0.012,2.124,0.221,2.496,3.137c-0.588-0.555-1.382-0.895-2.257-0.894C66.416,77.188,64.951,78.644,64.953,80.438z    M66.568,52.032c-0.006-10.557-16.572-20.307-16.572-20.307s-16.554,9.77-16.548,20.325c0.003,4.926,4.03,8.916,8.995,8.913   c2.397-0.001,4.574-0.934,6.185-2.452c-1.023,7.997-5.846,8.569-6.853,8.601v0.839H58.24v-0.839   c-1.006-0.031-5.832-0.604-6.853-8.61c1.613,1.521,3.794,2.455,6.196,2.453C62.548,60.952,66.57,56.957,66.568,52.032z"/>
</g>
</svg>