<svg xmlns="http://www.w3.org/2000/svg" xmlns:xlink="http://www.w3.org/1999/xlink" version="1.1" x="0px" y="0px" viewBox="25 25 50 50" style="enable-background:new 25 25 50 50;" xml:space="preserve">
<g>
<!-- Sandy brown outline -->
<path fill="#CD853F" stroke="#CD853F" stroke-width="3" d="M66.568,52.032c-0.006-10.557-16.572-20.307-16.572-20.307s-16.554,9.77-16.548,20.325c0.003,4.926,4.03,8.916,8.995,8.913   c2.397-0.001,4.574-0.934,6.185-2.452c-1.023,7.997-5.846,8.569-6.853,8.601v0.839H58.24v-0.839   c-1.006-0.031-5.832-0.604-6.853-8.61c1.613,1.521,3.794,2.455,6.196,2.453C62.548,60.952,66.57,56.957,66.568,52.032z"/>
<!-- Dark brown fill -->
<path fill="#8B4513" d="M66.568,52.032c-0.006-10.557-16.572-20.307-16.572-20.307s-16.554,9.77-16.548,20.325c0.003,4.926,4.03,8.916,8.995,8.913   c2.397-0.001,4.574-0.934,6.185-2.452c-1.023,7.997-5.846,8.569-6.853,8.601v0.839H58.24v-0.839   c-1.006-0.031-5.832-0.604-6.853-8.61c1.613,1.521,3.794,2.455,6.196,2.453C62.548,60.952,66.57,56.957,66.568,52.032z"/>
</g>
</svg>